<?xml version="1.0" encoding="UTF-8" standalone="no"?>
<svg xmlns="http://www.w3.org/2000/svg" viewBox="0 0 512 512" width="512" height="512">
  <!-- Background card -->
  <rect x="56" y="56" width="400" height="400" rx="20" ry="20" fill="#f5f5f5" stroke="#3498db" stroke-width="16" />
  
  <!-- Card flip symbol -->
  <path d="M296 176c0 8.8-7.2 16-16 16H116c-8.8 0-16-7.2-16-16s7.2-16 16-16h164c8.8 0 16 7.2 16 16z" fill="#3498db" />
  <path d="M396 336c0 8.8-7.2 16-16 16H216c-8.8 0-16-7.2-16-16s7.2-16 16-16h164c8.8 0 16 7.2 16 16z" fill="#3498db" />

  <!-- A letter -->
  <path d="M190 320l-30-80h60z" fill="#3498db" />
  <path d="M175 240l30 80h-60z" fill="#e74c3c" />
</svg>
